<svg xmlns="http://www.w3.org/2000/svg" viewBox="0 0 100 100" width="200" height="200">
<defs><radialGradient id="bg" cx="50%" cy="50%" r="50%"><stop offset="0%" stop-color="#1a1f3a"/><stop offset="100%" stop-color="#030108"/></radialGradient></defs>
<rect width="100" height="100" rx="18" fill="url(#bg)"/>
<polygon points="25.454545454545453,30 30.909090909090907,30 28.18181818181818,5" fill="#FFD700" opacity="0.9"/><circle cx="28.18181818181818" cy="3" r="2.5" fill="#FF2D78"/><polygon points="40.36363636363636,30 45.81818181818181,30 43.090909090909086,13" fill="#FFD700" opacity="0.9"/><polygon points="55.272727272727266,30 60.72727272727272,30 57.99999999999999,5" fill="#FFD700" opacity="0.9"/><circle cx="57.99999999999999" cy="3" r="2.5" fill="#FF2D78"/><polygon points="70.18181818181819,30 75.63636363636364,30 72.90909090909092,13" fill="#FFD700" opacity="0.9"/><polygon points="85.0909090909091,30 90.54545454545455,30 87.81818181818183,5" fill="#FFD700" opacity="0.9"/><circle cx="87.81818181818183" cy="3" r="2.5" fill="#FF2D78"/>
<path d="M50,30 L68,40 L68,62 L50,72 L32,62 L32,40 Z" fill="#1E2440" stroke="#FFD700" stroke-width="2"/>
<rect x="32" y="30" width="36" height="6" rx="1" fill="#FFD700" opacity="0.7"/>
<polygon points="50,28 53,32 50,36 47,32" fill="#FF2D78"/>
<ellipse cx="42" cy="52" rx="4.5" ry="5" fill="#030108"/><ellipse cx="58" cy="52" rx="4.5" ry="5" fill="#030108"/>
<circle cx="42" cy="52" r="2.5" fill="#FF2D78"/><circle cx="58" cy="52" r="2.5" fill="#FF2D78"/>
<circle cx="43" cy="51" r="1" fill="white" opacity="0.8"/><circle cx="59" cy="51" r="1" fill="white" opacity="0.8"/>
<path d="M43,60 Q50,57 57,60" stroke="#FFD700" stroke-width="1.5" fill="none"/>
<path d="M32,70 L25,85 L50,80 L75,85 L68,70 Z" fill="#1E2440" stroke="#FFD700" stroke-width="1"/>
<ellipse cx="50" cy="95" rx="25" ry="4" fill="rgba(255,215,0,0.2)"/></svg>